<?xml version="1.0" standalone="no"?>
<!DOCTYPE svg PUBLIC "-//W3C//DTD SVG 20010904//EN"
 "http://www.w3.org/TR/2001/REC-SVG-20010904/DTD/svg10.dtd">
<svg version="1.0" xmlns="http://www.w3.org/2000/svg"
 width="371.000000pt" height="371.000000pt" viewBox="0 0 371.000000 371.000000"
 preserveAspectRatio="xMidYMid meet">
<metadata>
Created by potrace 1.14, written by Peter Selinger 2001-2017
</metadata>
<g transform="translate(0.000000,371.000000) scale(0.100000,-0.100000)"
fill="#000000" stroke="none">
<path d="M2810 3700 c-71 -20 -134 -69 -189 -144 -43 -59 -70 -120 -136 -301
-26 -71 -60 -164 -76 -205 -77 -203 -191 -547 -273 -820 -21 -73 -102 -386
-111 -430 -1 -8 -6 -35 -11 -60 -4 -25 -8 -47 -9 -50 -1 -3 -5 -25 -9 -50 -5
-25 -10 -53 -11 -62 -2 -9 -7 -48 -10 -85 -4 -37 -9 -77 -11 -88 -13 -63 -1
-285 20 -375 10 -41 65 -148 80 -153 20 -8 46 18 98 98 98 152 142 233 328
600 267 528 553 1165 639 1425 133 399 98 613 -111 687 -48 17 -169 25 -208
13z"/>
<path d="M695 2926 c-139 -45 -204 -151 -203 -328 2 -194 82 -451 274 -876 13
-29 24 -54 24 -57 0 -2 18 -43 41 -92 23 -48 58 -126 79 -173 79 -177 327
-681 448 -910 131 -249 270 -473 300 -485 19 -7 42 19 70 80 68 144 64 400
-13 800 -11 58 -87 361 -110 440 -121 413 -393 1190 -476 1360 -64 131 -142
211 -238 243 -44 15 -145 14 -196 -2z"/>
</g>
</svg>
